<svg xmlns="http://www.w3.org/2000/svg" width="840" height="859" viewBox="0 0 840 859">
  <path d="M 486.0 568.5 L 501.0 412.5 L 329.0 412.5 L 342.5 556.0 L 342.0 565.5 L 331.0 564.5 L 329.0 567.5 L 308.5 400.0 L 516.0 399.5 L 498.5 559.0 L 496.0 565.5 L 488.0 564.5 L 486.0 568.5 Z" fill="#641c71" fill-rule="evenodd"/>
  <path d="M 539.0 361.5 L 524.0 361.5 L 514.5 349.0 L 514.5 340.0 L 502.0 338.5 L 493.0 330.5 L 484.0 338.5 L 473.0 338.5 L 471.5 350.0 L 461.0 361.5 L 447.0 361.5 L 437.5 350.0 L 437.5 340.0 L 424.0 338.5 L 416.0 330.5 L 407.0 338.5 L 395.0 338.5 L 393.5 350.0 L 384.0 361.5 L 369.0 361.5 L 359.5 350.0 L 359.5 340.0 L 346.0 338.5 L 338.0 330.5 L 328.0 338.5 L 317.0 338.5 L 315.5 350.0 L 305.5 359.0 L 307.0 361.5 L 287.0 361.5 L 283.0 341.5 L 222.5 340.0 L 299.0 314.5 L 526.0 314.5 L 533.5 318.0 L 531.5 321.0 L 539.5 338.0 L 539.0 361.5 Z" fill="#641c71" fill-rule="evenodd"/>
  <path d="M 425.0 804.5 L 419.5 803.0 L 430.0 802.5 L 431.5 794.0 L 437.5 788.0 L 429.0 775.5 L 421.0 775.5 L 413.0 769.5 L 405.0 775.5 L 397.0 775.5 L 388.5 788.0 L 394.5 794.0 L 394.0 802.5 L 366.0 802.5 L 366.5 795.0 L 374.5 788.0 L 368.5 782.0 L 368.0 775.5 L 361.0 775.5 L 355.0 770.5 L 336.0 775.5 L 333.5 783.0 L 325.5 788.0 L 329.5 793.0 L 328.5 801.0 L 340.0 803.5 L 296.5 802.0 L 330.0 748.5 L 496.0 748.5 L 529.5 803.0 L 497.0 802.5 L 495.5 794.0 L 500.5 788.0 L 489.0 775.5 L 481.0 775.5 L 472.0 769.5 L 466.0 775.5 L 458.0 775.5 L 457.5 783.0 L 451.5 787.0 L 458.5 794.0 L 460.0 802.5 L 425.0 804.5 Z" fill="#641c71" fill-rule="evenodd"/>
  <path d="M 433.0 201.5 L 432.5 195.0 L 438.5 188.0 L 432.5 183.0 L 432.5 175.0 L 423.0 173.5 L 416.0 167.5 L 410.0 173.5 L 399.5 175.0 L 399.5 183.0 L 393.5 188.0 L 399.5 195.0 L 399.0 201.5 L 355.0 200.5 L 377.5 160.0 L 379.5 133.0 L 376.5 118.0 L 344.5 129.0 L 355.0 144.5 L 342.0 129.5 L 333.5 134.0 L 337.0 152.5 L 351.5 147.0 L 327.0 171.5 L 330.5 133.0 L 377.0 112.5 L 447.0 112.5 L 445.5 147.0 L 448.5 163.0 L 470.5 199.0 L 433.0 201.5 Z" fill="#641c71" fill-rule="evenodd"/>
  <path d="M 507.0 297.5 L 488.0 297.5 L 482.0 289.5 L 471.0 297.5 L 473.0 289.5 L 445.0 289.5 L 448.0 297.5 L 438.0 289.5 L 427.0 297.5 L 424.5 296.0 L 429.5 292.0 L 428.0 289.5 L 401.0 289.5 L 403.0 297.5 L 393.0 289.5 L 383.0 297.5 L 380.5 296.0 L 384.0 289.5 L 356.0 289.5 L 359.0 297.5 L 349.0 289.5 L 342.0 297.5 L 317.5 297.0 L 334.0 280.5 L 491.0 280.5 L 507.0 297.5 Z" fill="#641c71" fill-rule="evenodd"/>
  <path d="M 330.0 263.5 L 333.5 247.0 L 352.0 234.5 L 473.0 234.5 L 482.0 237.5 L 495.5 255.0 L 495.0 262.5 L 480.0 262.5 L 480.5 248.0 L 468.0 241.5 L 455.5 250.0 L 457.0 262.5 L 444.0 262.5 L 445.5 251.0 L 432.0 241.5 L 419.5 249.0 L 420.0 262.5 L 407.0 262.5 L 406.5 247.0 L 395.0 241.5 L 383.5 248.0 L 383.0 262.5 L 371.0 262.5 L 370.5 248.0 L 358.0 241.5 L 345.5 250.0 L 346.0 262.5 L 330.0 263.5 Z" fill="#641c71" fill-rule="evenodd"/>
  <path d="M 325.0 728.5 L 324.5 717.0 L 332.5 705.0 L 321.5 703.0 L 339.0 699.5 L 484.0 699.5 L 495.5 708.0 L 501.5 722.0 L 500.0 727.5 L 482.0 726.5 L 481.5 719.0 L 476.0 713.5 L 464.0 711.5 L 457.5 716.0 L 455.0 725.5 L 447.0 726.5 L 440.0 713.5 L 428.0 711.5 L 419.5 718.0 L 418.0 726.5 L 411.0 726.5 L 403.0 713.5 L 391.0 711.5 L 383.5 717.0 L 380.0 726.5 L 374.0 726.5 L 369.0 715.5 L 355.0 711.5 L 346.5 718.0 L 345.0 725.5 L 325.0 728.5 Z" fill="#641c71" fill-rule="evenodd"/>
  <path d="M 183.0 352.5 L 245.0 310.5 L 268.5 304.0 L 219.0 332.5 L 218.0 336.5 L 223.5 335.0 L 214.0 341.5 L 183.0 352.5 Z" fill="#641c71" fill-rule="evenodd"/>
  <path d="M 644.0 352.5 L 608.0 339.5 L 603.5 336.0 L 608.5 335.0 L 596.0 325.5 L 556.5 304.0 L 580.0 310.5 L 644.0 352.5 Z" fill="#641c71" fill-rule="evenodd"/>
  <path d="M 452.0 77.5 L 437.0 77.5 L 430.0 73.5 L 373.0 77.5 L 372.5 73.0 L 379.5 58.0 L 394.0 42.5 L 415.0 31.5 L 439.5 51.0 L 450.5 68.0 L 452.0 77.5 Z" fill="#641c71" fill-rule="evenodd"/>
  <path d="M 500.0 177.5 L 482.5 151.0 L 489.5 151.0 L 492.5 134.0 L 483.0 129.5 L 479.0 134.5 L 480.5 129.0 L 469.0 122.5 L 495.5 133.0 L 500.0 177.5 Z" fill="#641c71" fill-rule="evenodd"/>
  <path d="M 223.0 466.5 L 213.5 429.0 L 264.0 414.5 L 255.0 428.5 L 224.5 438.0 L 229.5 460.0 L 223.0 466.5 Z" fill="#641c71" fill-rule="evenodd"/>
  <path d="M 415.5 135.0 L 429.0 116.5 L 440.0 133.5 L 443.5 116.0 L 400.0 114.5 L 415.5 135.0 Z" fill="#641c71" fill-rule="evenodd"/>
  <path d="M 536.0 233.5 L 505.0 184.5 L 530.5 213.0 L 536.0 233.5 Z" fill="#641c71" fill-rule="evenodd"/>
  <path d="M 608.0 825.5 L 584.5 822.0 L 642.5 809.0 L 640.0 818.5 L 608.0 825.5 Z" fill="#641c71" fill-rule="evenodd"/>
  <path d="M 604.0 461.5 L 600.5 438.0 L 591.0 433.5 L 583.0 420.5 L 611.5 429.0 L 604.0 461.5 Z" fill="#641c71" fill-rule="evenodd"/>
  <path d="M 433.0 363.5 L 400.0 361.5 L 397.5 352.0 L 408.0 342.5 L 423.0 342.5 L 433.5 352.0 L 433.0 363.5 Z" fill="#641c71" fill-rule="evenodd"/>
  <path d="M 353.0 361.5 L 322.0 361.5 L 319.5 352.0 L 330.0 342.5 L 345.0 342.5 L 355.5 352.0 L 353.0 361.5 Z" fill="#641c71" fill-rule="evenodd"/>
  <path d="M 508.0 361.5 L 478.0 361.5 L 475.5 352.0 L 485.0 342.5 L 501.0 342.5 L 510.5 352.0 L 508.0 361.5 Z" fill="#641c71" fill-rule="evenodd"/>
  <path d="M 244.0 761.5 L 263.0 744.5 L 279.5 746.0 L 244.0 761.5 Z" fill="#641c71" fill-rule="evenodd"/>
  <path d="M 581.0 760.5 L 546.5 746.0 L 562.0 744.5 L 581.0 760.5 Z" fill="#641c71" fill-rule="evenodd"/>
  <path d="M 353.0 798.5 L 342.0 798.5 L 334.5 792.0 L 340.0 781.5 L 358.0 778.5 L 364.5 784.0 L 363.5 791.0 L 353.0 798.5 Z" fill="#641c71" fill-rule="evenodd"/>
  <path d="M 419.0 798.5 L 407.0 798.5 L 400.0 793.5 L 399.5 784.0 L 407.0 778.5 L 424.0 781.5 L 427.5 792.0 L 419.0 798.5 Z" fill="#641c71" fill-rule="evenodd"/>
  <path d="M 484.0 798.5 L 472.0 798.5 L 464.0 793.5 L 461.5 784.0 L 468.0 778.5 L 484.0 780.5 L 491.5 792.0 L 484.0 798.5 Z" fill="#641c71" fill-rule="evenodd"/>
  <path d="M 422.0 199.5 L 408.0 198.5 L 403.5 193.0 L 403.5 184.0 L 411.0 177.5 L 421.0 177.5 L 428.5 184.0 L 428.5 193.0 L 422.0 199.5 Z" fill="#641c71" fill-rule="evenodd"/>
  <path d="M 356.0 63.5 L 379.5 47.0 L 363.0 62.5 L 356.0 63.5 Z" fill="#641c71" fill-rule="evenodd"/>
  <path d="M 409.5 136.0 L 398.0 118.5 L 387.5 135.0 L 409.5 136.0 Z" fill="#641c71" fill-rule="evenodd"/>
  <path d="M 414.5 74.0 L 422.5 69.0 L 423.5 63.0 L 417.0 55.5 L 409.0 55.5 L 403.5 68.0 L 410.0 74.5 L 414.5 74.0 Z" fill="#641c71" fill-rule="evenodd"/>
  <path d="M 385.5 134.0 L 395.0 114.5 L 381.5 116.0 L 385.5 134.0 Z" fill="#641c71" fill-rule="evenodd"/>
  <path d="M 436.5 137.0 L 429.0 120.5 L 419.5 136.0 L 436.5 137.0 Z" fill="#641c71" fill-rule="evenodd"/>
  <path d="M 551.0 838.5 L 303.0 838.5 L 282.0 833.5 L 275.0 838.5 L 270.5 837.0 L 271.0 833.5 L 258.0 834.5 L 186.0 818.5 L 182.5 817.0 L 182.5 810.0 L 235.0 766.5 L 270.0 748.5 L 268.0 744.5 L 323.0 747.5 L 325.5 749.0 L 281.0 770.5 L 275.0 764.5 L 267.0 767.5 L 255.0 782.5 L 242.0 790.5 L 256.5 769.0 L 253.0 760.5 L 244.0 764.5 L 231.5 777.0 L 226.5 788.0 L 229.5 796.0 L 198.5 811.0 L 278.0 829.5 L 297.0 799.5 L 299.0 802.5 L 340.0 801.5 L 346.0 806.5 L 366.0 799.5 L 368.0 802.5 L 392.0 802.5 L 394.0 799.5 L 413.0 806.5 L 420.0 801.5 L 460.0 800.5 L 480.0 806.5 L 486.0 801.5 L 529.0 800.5 L 546.0 828.5 L 591.0 819.5 L 611.5 824.0 L 551.0 838.5 Z" fill="#4f0a4a" fill-rule="evenodd"/>
  <path d="M 326.0 117.5 L 326.5 103.0 L 336.5 83.0 L 350.0 69.5 L 348.5 78.0 L 355.0 80.5 L 361.5 74.0 L 366.0 58.5 L 404.0 33.5 L 406.5 34.0 L 382.5 54.0 L 372.5 73.0 L 374.0 76.5 L 391.0 76.5 L 389.5 88.0 L 394.0 92.5 L 397.0 94.5 L 407.5 90.0 L 408.0 73.5 L 418.0 73.5 L 421.5 77.0 L 418.5 87.0 L 425.0 92.5 L 437.5 89.0 L 438.0 76.5 L 452.5 75.0 L 443.5 56.0 L 422.0 34.5 L 474.0 65.5 L 495.5 95.0 L 491.0 94.5 L 485.0 85.5 L 474.5 83.0 L 473.5 68.0 L 463.0 62.5 L 461.0 73.5 L 452.5 70.0 L 452.0 96.5 L 372.0 96.5 L 369.0 75.5 L 360.0 79.5 L 349.0 92.5 L 346.0 84.5 L 339.0 86.5 L 333.5 96.0 L 335.5 103.0 L 327.5 110.0 L 326.0 117.5 Z" fill="#4f0a4a" fill-rule="evenodd"/>
  <path d="M 494.0 251.5 L 480.0 236.5 L 509.5 241.0 L 485.5 204.0 L 497.0 209.5 L 504.0 206.5 L 504.5 194.0 L 494.0 180.5 L 484.0 174.5 L 474.5 178.0 L 474.0 187.5 L 449.0 148.5 L 446.5 155.0 L 448.0 112.5 L 470.5 122.0 L 449.5 118.0 L 451.0 133.5 L 457.5 123.0 L 460.5 124.0 L 452.5 136.0 L 454.0 139.5 L 465.0 142.5 L 466.0 136.5 L 471.0 143.5 L 480.5 133.0 L 473.5 145.0 L 486.5 151.0 L 483.5 153.0 L 489.5 163.0 L 536.5 234.0 L 533.0 250.5 L 496.0 248.5 L 494.0 251.5 Z" fill="#4f0a4a" fill-rule="evenodd"/>
  <path d="M 626.0 813.5 L 621.5 813.0 L 625.5 811.0 L 623.0 808.5 L 595.5 796.0 L 598.5 787.0 L 581.0 764.5 L 573.0 761.5 L 568.5 768.0 L 583.0 790.5 L 571.0 783.5 L 558.0 767.5 L 550.0 764.5 L 544.0 770.5 L 501.0 749.5 L 559.5 742.0 L 544.5 731.0 L 543.5 719.0 L 538.0 713.5 L 529.0 721.5 L 524.0 713.5 L 519.0 714.5 L 501.5 703.0 L 539.0 705.5 L 554.0 711.5 L 563.5 723.0 L 564.5 735.0 L 561.5 744.0 L 553.5 747.0 L 590.0 766.5 L 641.5 808.0 L 626.0 813.5 Z" fill="#4f0a4a" fill-rule="evenodd"/>
  <path d="M 495.0 272.5 L 331.0 272.5 L 328.0 253.5 L 319.0 251.5 L 303.0 257.5 L 275.5 258.0 L 297.0 248.5 L 345.0 236.5 L 331.5 250.0 L 331.0 262.5 L 347.0 261.5 L 362.0 267.5 L 371.0 260.5 L 398.0 267.5 L 407.0 260.5 L 435.0 267.5 L 444.0 260.5 L 471.0 267.5 L 481.0 261.5 L 494.0 262.5 L 496.0 255.5 L 495.0 272.5 Z" fill="#4f0a4a" fill-rule="evenodd"/>
  <path d="M 293.0 381.5 L 284.5 362.0 L 272.0 356.5 L 267.0 346.5 L 262.0 347.5 L 258.0 343.5 L 249.5 353.0 L 250.0 358.5 L 238.0 357.5 L 236.0 360.5 L 234.0 355.5 L 227.0 353.5 L 221.0 358.5 L 176.5 355.0 L 212.0 342.5 L 218.5 338.0 L 217.0 334.5 L 220.0 337.5 L 234.0 327.5 L 245.0 326.5 L 257.0 318.5 L 262.5 321.0 L 255.5 326.0 L 258.0 328.5 L 226.5 339.0 L 284.0 341.5 L 287.0 361.5 L 307.0 359.5 L 315.5 367.0 L 316.0 378.5 L 328.5 379.0 L 293.0 381.5 Z" fill="#4f0a4a" fill-rule="evenodd"/>
  <path d="M 498.0 740.5 L 328.0 739.5 L 323.5 720.0 L 326.0 726.5 L 344.0 724.5 L 355.0 736.5 L 363.0 736.5 L 373.0 724.5 L 381.0 725.5 L 392.0 736.5 L 403.0 734.5 L 409.0 725.5 L 418.0 726.5 L 429.0 736.5 L 438.0 735.5 L 446.0 725.5 L 455.0 725.5 L 465.0 736.5 L 476.0 734.5 L 482.0 726.5 L 501.0 725.5 L 498.0 740.5 Z" fill="#4f0a4a" fill-rule="evenodd"/>
  <path d="M 290.0 231.5 L 292.5 217.0 L 322.5 182.0 L 328.5 166.0 L 358.0 139.5 L 361.0 142.5 L 373.5 137.0 L 366.5 127.0 L 369.0 125.5 L 374.0 133.5 L 376.0 117.5 L 379.5 133.0 L 377.5 160.0 L 375.0 156.5 L 354.0 175.5 L 346.0 177.5 L 343.0 173.5 L 331.0 180.5 L 320.5 194.0 L 317.5 207.0 L 290.0 231.5 Z" fill="#4f0a4a" fill-rule="evenodd"/>
  <path d="M 652.0 368.5 L 600.0 353.5 L 571.0 350.5 L 567.0 343.5 L 559.0 347.5 L 540.0 342.5 L 528.5 316.0 L 566.0 327.5 L 569.5 326.0 L 560.5 320.0 L 566.0 321.5 L 568.0 318.5 L 583.0 327.5 L 608.0 334.5 L 606.5 338.0 L 616.0 343.5 L 647.0 353.5 L 652.0 368.5 Z" fill="#4f0a4a" fill-rule="evenodd"/>
  <path d="M 353.0 218.5 L 351.5 205.0 L 355.0 195.5 L 357.0 199.5 L 398.0 199.5 L 416.0 209.5 L 434.0 199.5 L 469.0 199.5 L 470.0 194.5 L 474.5 208.0 L 473.0 217.5 L 464.0 217.5 L 461.0 207.5 L 451.0 217.5 L 376.0 217.5 L 366.0 208.5 L 363.0 217.5 L 353.0 218.5 Z" fill="#4f0a4a" fill-rule="evenodd"/>
  <path d="M 495.0 748.5 L 329.5 748.0 L 495.0 748.5 Z" fill="#4f0a4a" fill-rule="evenodd"/>
  <path d="M 491.0 280.5 L 333.5 280.0 L 491.0 280.5 Z" fill="#4f0a4a" fill-rule="evenodd"/>
  <path d="M 315.0 461.5 L 312.0 448.5 L 305.5 454.0 L 299.0 415.5 L 256.0 428.5 L 263.5 416.0 L 259.5 414.0 L 308.0 399.5 L 315.0 461.5 Z" fill="#4f0a4a" fill-rule="evenodd"/>
  <path d="M 482.0 699.5 L 343.5 699.0 L 482.0 699.5 Z" fill="#4f0a4a" fill-rule="evenodd"/>
  <path d="M 339.0 653.5 L 327.0 554.5 L 330.0 564.5 L 343.5 563.0 L 351.5 651.0 L 341.0 648.5 L 339.0 653.5 Z" fill="#4f0a4a" fill-rule="evenodd"/>
  <path d="M 472.0 234.5 L 352.5 234.0 L 472.0 234.5 Z" fill="#4f0a4a" fill-rule="evenodd"/>
  <path d="M 592.0 434.5 L 527.0 415.5 L 519.0 405.5 L 516.0 411.5 L 516.5 400.0 L 584.0 419.5 L 592.0 434.5 Z" fill="#4f0a4a" fill-rule="evenodd"/>
  <path d="M 486.0 648.5 L 476.5 648.0 L 483.5 571.0 L 485.0 564.5 L 497.0 564.5 L 486.0 648.5 Z" fill="#4f0a4a" fill-rule="evenodd"/>
  <path d="M 588.0 524.5 L 583.5 509.0 L 599.0 443.5 L 604.5 455.0 L 603.5 464.0 L 588.0 524.5 Z" fill="#4f0a4a" fill-rule="evenodd"/>
  <path d="M 240.0 531.5 L 223.5 469.0 L 228.0 458.5 L 245.5 523.0 L 240.0 531.5 Z" fill="#4f0a4a" fill-rule="evenodd"/>
  <path d="M 484.0 380.5 L 423.5 380.0 L 436.0 378.5 L 437.5 367.0 L 446.0 359.5 L 460.0 361.5 L 462.0 357.5 L 470.5 367.0 L 470.5 377.0 L 484.0 380.5 Z" fill="#4f0a4a" fill-rule="evenodd"/>
  <path d="M 407.0 380.5 L 346.5 379.0 L 359.0 378.5 L 359.5 367.0 L 368.0 359.5 L 388.0 361.5 L 393.5 367.0 L 393.5 377.0 L 407.0 380.5 Z" fill="#4f0a4a" fill-rule="evenodd"/>
  <path d="M 570.0 313.5 L 546.0 304.5 L 540.0 305.5 L 516.5 290.0 L 562.0 303.5 L 570.0 313.5 Z" fill="#4f0a4a" fill-rule="evenodd"/>
  <path d="M 261.0 313.5 L 254.5 313.0 L 264.0 303.5 L 306.5 291.0 L 261.0 313.5 Z" fill="#4f0a4a" fill-rule="evenodd"/>
  <path d="M 326.0 714.5 L 273.5 710.0 L 331.0 700.5 L 333.5 704.0 L 326.0 714.5 Z" fill="#4f0a4a" fill-rule="evenodd"/>
  <path d="M 407.0 306.5 L 372.5 304.0 L 381.0 296.5 L 378.0 305.5 L 405.0 305.5 L 401.5 298.0 L 405.0 295.5 L 416.5 305.0 L 407.0 306.5 Z" fill="#4f0a4a" fill-rule="evenodd"/>
  <path d="M 362.0 306.5 L 308.5 305.0 L 318.0 295.5 L 341.0 297.5 L 338.0 305.5 L 362.0 306.5 Z" fill="#4f0a4a" fill-rule="evenodd"/>
  <path d="M 344.0 374.5 L 328.0 372.5 L 319.5 363.0 L 319.5 353.0 L 323.0 361.5 L 352.0 361.5 L 355.0 352.5 L 355.5 363.0 L 344.0 374.5 Z" fill="#4f0a4a" fill-rule="evenodd"/>
  <path d="M 533.0 381.5 L 501.5 380.0 L 514.0 378.5 L 515.5 367.0 L 523.0 359.5 L 540.0 360.5 L 533.0 381.5 Z" fill="#4f0a4a" fill-rule="evenodd"/>
  <path d="M 423.0 374.5 L 408.0 374.5 L 397.5 365.0 L 397.5 358.0 L 401.0 361.5 L 432.0 359.5 L 433.5 365.0 L 423.0 374.5 Z" fill="#4f0a4a" fill-rule="evenodd"/>
  <path d="M 500.0 374.5 L 483.0 372.5 L 475.5 365.0 L 475.5 358.0 L 479.0 361.5 L 510.0 360.5 L 510.5 365.0 L 500.0 374.5 Z" fill="#4f0a4a" fill-rule="evenodd"/>
  <path d="M 498.0 202.5 L 492.0 201.5 L 482.5 192.0 L 482.0 181.5 L 489.0 182.5 L 497.5 191.0 L 498.0 202.5 Z" fill="#4f0a4a" fill-rule="evenodd"/>
  <path d="M 516.0 305.5 L 493.0 305.5 L 488.5 298.0 L 508.0 296.5 L 516.0 305.5 Z" fill="#4f0a4a" fill-rule="evenodd"/>
  <path d="M 237.0 787.5 L 233.5 787.0 L 233.5 781.0 L 243.0 770.5 L 250.0 768.5 L 245.5 781.0 L 237.0 787.5 Z" fill="#4f0a4a" fill-rule="evenodd"/>
  <path d="M 327.0 198.5 L 328.5 190.0 L 343.0 181.5 L 327.0 198.5 Z" fill="#4f0a4a" fill-rule="evenodd"/>
  <path d="M 556.5 734.0 L 558.5 720.0 L 551.0 713.5 L 547.5 725.0 L 550.0 732.5 L 556.5 734.0 Z" fill="#4f0a4a" fill-rule="evenodd"/>
  <path d="M 591.0 787.5 L 579.5 781.0 L 576.0 768.5 L 588.5 777.0 L 591.0 787.5 Z" fill="#4f0a4a" fill-rule="evenodd"/>
  <path d="M 527.5 241.0 L 527.0 228.5 L 518.5 239.0 L 527.5 241.0 Z" fill="#4f0a4a" fill-rule="evenodd"/>
  <path d="M 615.0 427.5 L 517.0 398.5 L 308.0 398.5 L 211.0 427.5 L 193.0 419.5 L 179.5 408.0 L 172.5 395.0 L 170.5 377.0 L 174.0 367.5 L 190.5 368.0 L 183.5 373.0 L 179.5 389.0 L 183.5 402.0 L 190.0 402.5 L 194.0 407.5 L 204.5 397.0 L 207.5 381.0 L 203.5 376.0 L 204.0 367.5 L 217.5 370.0 L 214.5 380.0 L 219.5 391.0 L 230.0 395.5 L 240.5 386.0 L 240.5 369.0 L 247.0 367.5 L 256.0 382.5 L 261.0 380.5 L 266.0 384.5 L 275.5 375.0 L 275.0 368.5 L 285.0 369.5 L 301.0 393.5 L 524.0 393.5 L 537.5 376.0 L 542.5 356.0 L 552.0 356.5 L 549.5 375.0 L 559.0 384.5 L 570.5 381.0 L 577.5 368.0 L 576.0 362.5 L 584.0 366.5 L 588.0 363.5 L 583.5 370.0 L 585.5 386.0 L 595.0 395.5 L 605.5 391.0 L 611.5 379.0 L 610.0 371.5 L 621.0 373.5 L 617.5 382.0 L 621.5 397.0 L 631.0 406.5 L 641.5 402.0 L 645.5 390.0 L 641.5 379.0 L 654.5 383.0 L 653.5 394.0 L 646.5 407.0 L 631.0 420.5 L 615.0 427.5 Z" fill="#1c030a" fill-rule="evenodd"/>
  <path d="M 542.0 705.5 L 480.5 697.0 L 512.0 451.5 L 519.5 459.0 L 491.5 685.0 L 494.0 689.5 L 532.0 694.5 L 538.5 692.0 L 573.0 550.5 L 577.5 561.0 L 542.0 705.5 Z" fill="#1c030a" fill-rule="evenodd"/>
  <path d="M 288.0 705.5 L 281.5 703.0 L 249.5 573.0 L 256.5 567.0 L 287.5 693.0 L 331.0 689.5 L 333.5 685.0 L 310.5 499.0 L 318.0 491.5 L 343.5 698.0 L 288.0 705.5 Z" fill="#1c030a" fill-rule="evenodd"/>
  <path d="M 548.0 320.5 L 529.0 314.5 L 296.0 314.5 L 276.5 320.0 L 323.0 287.5 L 304.5 308.0 L 305.0 311.5 L 520.0 311.5 L 521.5 309.0 L 502.0 287.5 L 548.0 320.5 Z" fill="#1c030a" fill-rule="evenodd"/>
  <path d="M 293.0 249.5 L 297.0 239.5 L 303.0 240.5 L 354.0 193.5 L 350.5 207.0 L 354.0 228.5 L 471.0 228.5 L 476.0 219.5 L 487.5 236.0 L 470.0 232.5 L 355.0 232.5 L 293.0 249.5 Z" fill="#1c030a" fill-rule="evenodd"/>
  <path d="M 495.0 131.5 L 448.0 111.5 L 376.0 111.5 L 332.0 131.5 L 327.5 123.0 L 367.0 87.5 L 376.0 107.5 L 449.0 107.5 L 454.5 98.0 L 456.0 81.5 L 465.0 96.5 L 470.0 98.5 L 474.0 92.5 L 499.5 112.0 L 495.0 131.5 Z" fill="#1c030a" fill-rule="evenodd"/>
  <path d="M 548.0 828.5 L 512.0 770.5 L 521.0 775.5 L 523.5 773.0 L 530.0 789.5 L 529.0 779.5 L 541.5 784.0 L 544.5 789.0 L 542.0 795.5 L 531.5 791.0 L 536.0 797.5 L 543.0 796.5 L 544.5 800.0 L 548.5 795.0 L 546.0 787.5 L 557.0 793.5 L 561.0 788.5 L 560.5 792.0 L 568.0 793.5 L 571.0 800.5 L 603.5 816.0 L 548.0 828.5 Z" fill="#1c030a" fill-rule="evenodd"/>
  <path d="M 278.0 828.5 L 222.5 816.0 L 252.0 801.5 L 252.0 792.5 L 260.0 794.5 L 279.0 787.5 L 277.0 795.5 L 289.0 797.5 L 291.0 791.5 L 286.0 795.5 L 281.5 793.0 L 284.5 779.0 L 288.0 783.5 L 296.5 778.0 L 296.0 773.5 L 299.0 779.5 L 303.0 772.5 L 313.0 770.5 L 278.0 828.5 Z" fill="#1c030a" fill-rule="evenodd"/>
  <path d="M 248.0 308.5 L 246.5 289.0 L 259.0 269.5 L 261.5 269.0 L 258.5 281.0 L 264.0 286.5 L 271.5 279.0 L 272.0 267.5 L 277.5 267.0 L 275.5 274.0 L 281.0 281.5 L 287.5 277.0 L 290.0 264.5 L 293.5 265.0 L 294.5 274.0 L 300.0 276.5 L 310.0 261.5 L 314.0 271.5 L 322.5 267.0 L 325.0 259.5 L 327.5 263.0 L 333.0 280.5 L 248.0 308.5 Z" fill="#1c030a" fill-rule="evenodd"/>
  <path d="M 578.0 308.5 L 492.0 280.5 L 497.5 270.0 L 496.5 256.0 L 500.5 256.0 L 503.5 268.0 L 511.0 271.5 L 514.5 267.0 L 511.5 256.0 L 524.0 255.5 L 518.5 260.0 L 518.5 268.0 L 525.0 276.5 L 531.5 273.0 L 531.5 265.0 L 526.0 256.5 L 556.0 261.5 L 577.5 285.0 L 580.5 297.0 L 578.0 308.5 Z" fill="#1c030a" fill-rule="evenodd"/>
  <path d="M 329.0 747.5 L 265.0 743.5 L 260.5 733.0 L 261.5 724.0 L 268.0 716.5 L 266.5 731.0 L 271.0 734.5 L 276.5 729.0 L 277.5 717.0 L 283.0 716.5 L 280.5 730.0 L 286.0 734.5 L 291.5 729.0 L 292.5 718.0 L 297.0 717.5 L 295.5 731.0 L 301.0 734.5 L 306.5 729.0 L 307.5 718.0 L 312.0 717.5 L 310.5 732.0 L 316.0 734.5 L 323.0 718.5 L 329.0 747.5 Z" fill="#1c030a" fill-rule="evenodd"/>
  <path d="M 505.0 747.5 L 495.5 747.0 L 503.0 724.5 L 509.0 734.5 L 515.0 730.5 L 533.5 744.0 L 505.0 747.5 Z" fill="#1c030a" fill-rule="evenodd"/>
  <path d="M 635.0 398.5 L 629.0 397.5 L 623.5 388.0 L 628.0 373.5 L 630.0 376.5 L 635.0 374.5 L 639.5 383.0 L 639.5 392.0 L 635.0 398.5 Z" fill="#1c030a" fill-rule="evenodd"/>
  <path d="M 193.0 398.5 L 185.5 392.0 L 185.5 383.0 L 191.0 373.5 L 197.0 372.5 L 201.5 378.0 L 201.5 389.0 L 193.0 398.5 Z" fill="#1c030a" fill-rule="evenodd"/>
  <path d="M 229.0 387.5 L 221.5 383.0 L 219.5 372.0 L 223.0 367.5 L 234.0 366.5 L 236.5 377.0 L 229.0 387.5 Z" fill="#1c030a" fill-rule="evenodd"/>
  <path d="M 564.0 376.5 L 556.5 374.0 L 557.0 357.5 L 571.5 361.0 L 571.5 368.0 L 564.0 376.5 Z" fill="#1c030a" fill-rule="evenodd"/>
  <path d="M 599.0 387.5 L 593.0 386.5 L 589.5 380.0 L 591.0 366.5 L 605.5 371.0 L 604.5 382.0 L 599.0 387.5 Z" fill="#1c030a" fill-rule="evenodd"/>
  <path d="M 545.5 281.0 L 549.5 272.0 L 540.0 261.5 L 535.5 272.0 L 541.0 280.5 L 545.5 281.0 Z" fill="#1c030a" fill-rule="evenodd"/>
  <path d="M 563.5 286.0 L 566.5 275.0 L 562.0 267.5 L 557.0 266.5 L 553.5 278.0 L 563.5 286.0 Z" fill="#1c030a" fill-rule="evenodd"/>
  <path d="M 336.5 232.0 L 343.5 229.0 L 341.0 221.5 L 333.5 230.0 L 336.5 232.0 Z" fill="#1c030a" fill-rule="evenodd"/>
  <path d="M 295.5 789.0 L 299.5 785.0 L 298.0 780.5 L 295.5 789.0 Z" fill="#1c030a" fill-rule="evenodd"/>
  <path d="M 558.0 793.5 L 546.0 787.5 L 535.0 770.5 L 527.0 767.5 L 523.0 776.5 L 515.0 771.5 L 512.0 773.5 L 495.0 747.5 L 330.0 747.5 L 313.0 774.5 L 310.0 771.5 L 303.0 775.5 L 297.0 767.5 L 286.5 775.0 L 278.0 788.5 L 266.5 793.0 L 275.5 782.0 L 279.5 772.0 L 277.0 768.5 L 282.0 769.5 L 328.0 747.5 L 326.0 737.5 L 499.0 737.5 L 497.0 747.5 L 543.0 769.5 L 548.0 768.5 L 545.5 771.0 L 549.5 782.0 L 558.0 793.5 Z" fill="#360129" fill-rule="evenodd"/>
  <path d="M 510.0 242.5 L 479.0 236.5 L 484.0 236.5 L 485.0 231.5 L 493.5 232.0 L 483.0 217.5 L 481.5 227.0 L 476.0 220.5 L 472.0 228.5 L 354.0 228.5 L 350.5 207.0 L 351.5 216.0 L 362.0 217.5 L 364.0 213.5 L 367.0 224.5 L 382.0 224.5 L 375.5 218.0 L 382.0 216.5 L 450.0 216.5 L 445.0 224.5 L 461.0 224.5 L 463.0 214.5 L 472.0 217.5 L 472.5 199.0 L 449.5 164.0 L 447.0 142.5 L 510.0 242.5 Z" fill="#360129" fill-rule="evenodd"/>
  <path d="M 343.0 699.5 L 335.0 626.5 L 338.5 648.0 L 352.5 649.0 L 358.0 687.5 L 469.0 687.5 L 475.5 642.0 L 478.0 648.5 L 486.0 648.5 L 489.5 638.0 L 482.0 698.5 L 343.0 699.5 Z" fill="#360129" fill-rule="evenodd"/>
  <path d="M 524.0 393.5 L 301.0 393.5 L 291.5 381.0 L 329.0 379.5 L 338.0 386.5 L 346.0 379.5 L 408.0 379.5 L 416.0 386.5 L 423.0 379.5 L 485.0 379.5 L 494.0 386.5 L 501.0 379.5 L 534.0 379.5 L 524.0 393.5 Z" fill="#360129" fill-rule="evenodd"/>
  <path d="M 522.0 311.5 L 302.5 311.0 L 309.0 303.5 L 339.0 306.5 L 421.0 303.5 L 429.0 306.5 L 450.0 306.5 L 452.0 303.5 L 491.0 306.5 L 493.0 303.5 L 516.0 303.5 L 522.0 311.5 Z" fill="#360129" fill-rule="evenodd"/>
  <path d="M 517.0 399.5 L 307.5 399.0 L 517.0 399.5 Z" fill="#360129" fill-rule="evenodd"/>
  <path d="M 450.0 107.5 L 375.0 107.5 L 365.5 79.0 L 370.5 75.0 L 373.0 96.5 L 394.0 96.5 L 397.0 93.5 L 404.0 96.5 L 452.0 96.5 L 452.0 66.5 L 478.5 85.0 L 480.5 97.0 L 476.0 96.5 L 470.5 85.0 L 460.0 78.5 L 450.0 107.5 Z" fill="#360129" fill-rule="evenodd"/>
  <path d="M 491.0 279.5 L 334.0 279.5 L 323.5 253.0 L 329.5 253.0 L 331.0 272.5 L 496.0 270.5 L 491.0 279.5 Z" fill="#360129" fill-rule="evenodd"/>
  <path d="M 291.0 248.5 L 289.5 232.0 L 319.0 204.5 L 328.0 209.5 L 339.0 203.5 L 349.5 189.0 L 350.5 177.0 L 377.0 153.5 L 373.5 169.0 L 354.5 198.0 L 351.0 195.5 L 305.0 236.5 L 298.0 228.5 L 298.5 243.0 L 291.0 248.5 Z" fill="#360129" fill-rule="evenodd"/>
  <path d="M 529.0 746.5 L 518.5 746.0 L 530.5 743.0 L 515.5 732.0 L 514.5 721.0 L 508.0 713.5 L 502.5 718.0 L 501.5 731.0 L 500.5 715.0 L 486.0 699.5 L 519.0 702.5 L 503.5 704.0 L 519.5 715.0 L 517.5 725.0 L 521.0 732.5 L 529.5 732.0 L 532.0 718.5 L 536.0 732.5 L 541.0 734.5 L 545.0 729.5 L 561.5 742.0 L 529.0 746.5 Z" fill="#360129" fill-rule="evenodd"/>
  <path d="M 470.0 233.5 L 354.5 233.0 L 470.0 233.5 Z" fill="#360129" fill-rule="evenodd"/>
  <path d="M 233.0 819.5 L 198.5 811.0 L 236.0 790.5 L 242.0 790.5 L 245.0 784.5 L 248.0 786.5 L 255.0 782.5 L 251.5 792.0 L 256.5 800.0 L 224.5 815.0 L 233.0 819.5 Z" fill="#360129" fill-rule="evenodd"/>
  <path d="M 603.0 817.5 L 567.5 798.0 L 573.5 792.0 L 570.0 782.5 L 583.0 790.5 L 596.0 792.5 L 597.0 796.5 L 626.5 811.0 L 603.0 817.5 Z" fill="#360129" fill-rule="evenodd"/>
  <path d="M 654.0 382.5 L 644.0 379.5 L 632.0 363.5 L 622.5 368.0 L 622.0 374.5 L 610.0 371.5 L 609.5 363.0 L 602.5 356.0 L 652.0 367.5 L 654.0 382.5 Z" fill="#360129" fill-rule="evenodd"/>
  <path d="M 262.0 269.5 L 278.0 257.5 L 314.5 254.0 L 309.0 264.5 L 301.0 256.5 L 292.0 266.5 L 283.0 261.5 L 275.0 268.5 L 265.0 266.5 L 262.0 269.5 Z" fill="#360129" fill-rule="evenodd"/>
  <path d="M 324.0 719.5 L 318.0 713.5 L 312.0 718.5 L 304.0 713.5 L 297.0 718.5 L 290.0 713.5 L 266.5 716.0 L 274.0 710.5 L 325.0 712.5 L 324.0 719.5 Z" fill="#360129" fill-rule="evenodd"/>
  <path d="M 203.0 372.5 L 201.0 366.5 L 193.0 363.5 L 190.0 367.5 L 172.5 367.0 L 177.0 356.5 L 223.5 356.0 L 216.5 363.0 L 217.0 369.5 L 205.0 368.5 L 203.0 372.5 Z" fill="#360129" fill-rule="evenodd"/>
  <path d="M 306.0 300.5 L 304.0 296.5 L 295.5 298.0 L 301.0 291.5 L 291.5 294.0 L 331.5 282.0 L 320.0 293.5 L 318.0 291.5 L 306.0 300.5 Z" fill="#360129" fill-rule="evenodd"/>
  <path d="M 549.0 258.5 L 514.0 256.5 L 507.0 251.5 L 496.0 255.5 L 494.5 249.0 L 533.0 250.5 L 549.0 258.5 Z" fill="#360129" fill-rule="evenodd"/>
  <path d="M 519.0 458.5 L 511.5 451.0 L 518.0 403.5 L 526.5 415.0 L 523.5 417.0 L 519.0 458.5 Z" fill="#360129" fill-rule="evenodd"/>
  <path d="M 313.0 500.5 L 305.5 458.0 L 312.0 442.5 L 318.5 486.0 L 313.0 500.5 Z" fill="#360129" fill-rule="evenodd"/>
  <path d="M 578.0 563.5 L 572.5 550.0 L 583.0 509.5 L 587.5 524.0 L 578.0 563.5 Z" fill="#360129" fill-rule="evenodd"/>
  <path d="M 253.0 573.5 L 248.5 570.0 L 239.5 532.0 L 246.0 525.5 L 255.5 563.0 L 253.0 573.5 Z" fill="#360129" fill-rule="evenodd"/>
  <path d="M 302.0 838.5 L 277.0 838.5 L 259.5 834.0 L 317.5 837.0 L 302.0 838.5 Z" fill="#360129" fill-rule="evenodd"/>
  <path d="M 329.0 122.5 L 327.5 110.0 L 339.0 103.5 L 352.0 88.5 L 354.5 100.0 L 329.0 122.5 Z" fill="#360129" fill-rule="evenodd"/>
  <path d="M 521.0 300.5 L 493.5 282.0 L 522.0 289.5 L 520.5 292.0 L 529.5 298.0 L 521.0 296.5 L 521.0 300.5 Z" fill="#360129" fill-rule="evenodd"/>
  <path d="M 572.0 328.5 L 543.0 320.5 L 545.5 318.0 L 535.5 311.0 L 547.0 310.5 L 553.0 316.5 L 566.0 320.5 L 572.0 328.5 Z" fill="#360129" fill-rule="evenodd"/>
  <path d="M 255.0 328.5 L 252.5 328.0 L 262.0 319.5 L 279.0 310.5 L 289.5 311.0 L 281.0 320.5 L 255.0 328.5 Z" fill="#360129" fill-rule="evenodd"/>
  <path d="M 585.0 366.5 L 575.5 363.0 L 576.5 353.0 L 571.0 346.5 L 597.5 355.0 L 591.0 356.5 L 585.0 366.5 Z" fill="#360129" fill-rule="evenodd"/>
  <path d="M 549.0 358.5 L 541.5 358.0 L 541.0 341.5 L 563.5 347.0 L 558.0 346.5 L 549.0 358.5 Z" fill="#360129" fill-rule="evenodd"/>
  <path d="M 329.0 202.5 L 326.5 194.0 L 329.0 196.5 L 344.0 183.5 L 341.5 194.0 L 329.0 202.5 Z" fill="#360129" fill-rule="evenodd"/>
  <path d="M 564.0 791.5 L 555.5 784.0 L 552.0 771.5 L 565.5 781.0 L 567.5 790.0 L 564.0 791.5 Z" fill="#360129" fill-rule="evenodd"/>
  <path d="M 261.0 791.5 L 257.5 790.0 L 258.5 783.0 L 273.0 771.5 L 271.5 781.0 L 261.0 791.5 Z" fill="#360129" fill-rule="evenodd"/>
  <path d="M 268.0 370.5 L 256.5 369.0 L 253.5 362.0 L 256.0 357.5 L 268.5 358.0 L 268.0 370.5 Z" fill="#360129" fill-rule="evenodd"/>
  <path d="M 498.0 111.5 L 489.5 105.0 L 492.0 93.5 L 497.5 101.0 L 498.0 111.5 Z" fill="#360129" fill-rule="evenodd"/>
  <path d="M 286.0 371.5 L 274.5 368.0 L 275.0 357.5 L 283.5 360.0 L 286.0 371.5 Z" fill="#360129" fill-rule="evenodd"/>
  <path d="M 246.0 368.5 L 237.5 366.0 L 237.0 357.5 L 250.5 359.0 L 246.0 368.5 Z" fill="#360129" fill-rule="evenodd"/>
  <path d="M 570.0 362.5 L 559.0 360.5 L 557.5 357.0 L 566.0 352.5 L 570.0 362.5 Z" fill="#360129" fill-rule="evenodd"/>
  <path d="M 470.0 686.5 L 357.0 686.5 L 347.5 605.0 L 349.5 594.0 L 362.0 595.5 L 365.5 591.0 L 370.0 637.5 L 459.0 637.5 L 464.5 586.0 L 467.0 596.5 L 472.0 592.5 L 477.0 596.5 L 480.0 593.5 L 470.0 686.5 Z" fill="#af2a0b" fill-rule="evenodd"/>
  <path d="M 290.0 694.5 L 268.5 613.0 L 274.5 610.0 L 275.0 605.5 L 286.0 645.5 L 320.0 639.5 L 316.5 603.0 L 316.5 597.0 L 321.5 598.0 L 320.0 578.5 L 333.5 688.0 L 290.0 694.5 Z" fill="#af2a0b" fill-rule="evenodd"/>
  <path d="M 536.0 694.5 L 492.5 688.0 L 504.0 589.5 L 504.5 597.0 L 508.0 595.5 L 509.5 600.0 L 504.5 631.0 L 508.0 640.5 L 540.0 645.5 L 548.5 612.0 L 550.0 609.5 L 555.0 613.5 L 557.5 610.0 L 536.0 694.5 Z" fill="#af2a0b" fill-rule="evenodd"/>
  <path d="M 292.5 679.0 L 292.0 671.5 L 301.0 678.5 L 305.5 676.0 L 305.0 671.5 L 307.0 674.5 L 309.0 671.5 L 311.0 676.5 L 316.0 675.5 L 315.0 664.5 L 320.0 674.5 L 325.5 673.0 L 325.5 667.0 L 321.5 670.0 L 322.5 661.0 L 318.0 659.5 L 310.5 664.0 L 310.0 671.5 L 309.5 663.0 L 305.0 661.5 L 298.0 671.5 L 297.5 665.0 L 292.0 663.5 L 288.5 673.0 L 292.5 679.0 Z" fill="#af2a0b" fill-rule="evenodd"/>
  <path d="M 534.5 679.0 L 537.5 670.0 L 533.0 663.5 L 525.0 665.5 L 520.0 674.5 L 523.5 665.0 L 520.0 661.5 L 515.5 663.0 L 515.0 669.5 L 514.5 664.0 L 507.0 659.5 L 503.5 661.0 L 503.5 667.0 L 499.5 667.0 L 501.0 674.5 L 509.0 667.5 L 509.0 675.5 L 514.0 676.5 L 516.0 670.5 L 524.0 678.5 L 533.0 671.5 L 531.5 678.0 L 534.5 679.0 Z" fill="#af2a0b" fill-rule="evenodd"/>
  <path d="M 498.0 208.5 L 486.0 202.5 L 475.5 189.0 L 480.0 183.5 L 482.5 193.0 L 493.0 202.5 L 500.5 199.0 L 498.0 191.5 L 504.5 195.0 L 505.5 206.0 L 498.0 208.5 Z" fill="#af2a0b" fill-rule="evenodd"/>
  <path d="M 416.0 208.5 L 410.0 203.5 L 401.0 203.5 L 398.5 193.0 L 410.0 200.5 L 422.0 200.5 L 430.0 189.5 L 433.0 190.5 L 431.5 203.0 L 422.0 203.5 L 416.0 208.5 Z" fill="#af2a0b" fill-rule="evenodd"/>
  <path d="M 328.0 208.5 L 319.5 206.0 L 322.5 199.0 L 332.0 202.5 L 345.0 186.5 L 349.0 186.5 L 341.5 200.0 L 328.0 208.5 Z" fill="#af2a0b" fill-rule="evenodd"/>
  <path d="M 406.0 304.5 L 377.5 304.0 L 383.0 298.5 L 401.0 298.5 L 406.0 304.5 Z" fill="#af2a0b" fill-rule="evenodd"/>
  <path d="M 450.0 304.5 L 422.5 303.0 L 427.0 298.5 L 446.0 298.5 L 450.0 304.5 Z" fill="#af2a0b" fill-rule="evenodd"/>
  <path d="M 406.5 672.0 L 398.0 657.5 L 386.5 671.0 L 406.5 672.0 Z" fill="#af2a0b" fill-rule="evenodd"/>
  <path d="M 436.5 672.0 L 429.0 657.5 L 417.5 670.0 L 436.5 672.0 Z" fill="#af2a0b" fill-rule="evenodd"/>
  <path d="M 445.5 671.0 L 453.5 659.0 L 435.0 657.5 L 445.5 671.0 Z" fill="#af2a0b" fill-rule="evenodd"/>
  <path d="M 492.0 304.5 L 466.5 304.0 L 471.0 299.5 L 489.0 299.5 L 492.0 304.5 Z" fill="#af2a0b" fill-rule="evenodd"/>
  <path d="M 383.5 671.0 L 391.5 659.0 L 374.0 657.5 L 383.5 671.0 Z" fill="#af2a0b" fill-rule="evenodd"/>
  <path d="M 414.5 671.0 L 422.5 659.0 L 405.0 657.5 L 414.5 671.0 Z" fill="#af2a0b" fill-rule="evenodd"/>
  <path d="M 409.0 135.5 L 388.5 135.0 L 391.0 130.5 L 403.0 131.5 L 405.0 128.5 L 409.0 135.5 Z" fill="#af2a0b" fill-rule="evenodd"/>
  <path d="M 375.5 672.0 L 369.0 658.5 L 368.5 670.0 L 375.5 672.0 Z" fill="#af2a0b" fill-rule="evenodd"/>
  <path d="M 456.5 672.0 L 457.0 659.5 L 448.5 670.0 L 456.5 672.0 Z" fill="#af2a0b" fill-rule="evenodd"/>
  <path d="M 357.0 499.5 L 352.0 493.5 L 347.5 495.0 L 350.0 490.5 L 338.0 492.5 L 336.5 489.0 L 329.0 413.5 L 500.5 414.0 L 491.0 496.5 L 481.0 495.5 L 478.0 490.5 L 473.0 495.5 L 471.5 479.0 L 463.5 466.0 L 441.0 447.5 L 414.0 435.5 L 387.0 448.5 L 366.5 465.0 L 357.5 481.0 L 357.0 499.5 Z" fill="#f08704" fill-rule="evenodd"/>
  <path d="M 303.0 514.5 L 300.5 487.0 L 293.5 471.0 L 267.0 447.5 L 252.5 477.0 L 253.5 511.0 L 244.5 513.0 L 227.0 437.5 L 300.5 418.0 L 309.5 494.0 L 303.5 497.0 L 303.0 514.5 Z" fill="#f08704" fill-rule="evenodd"/>
  <path d="M 580.0 515.5 L 578.0 511.5 L 571.5 511.0 L 572.5 476.0 L 558.0 447.5 L 532.5 470.0 L 525.5 484.0 L 523.5 501.0 L 519.0 494.5 L 516.5 496.0 L 526.0 416.5 L 599.5 438.0 L 580.0 515.5 Z" fill="#f08704" fill-rule="evenodd"/>
  <path d="M 485.5 466.0 L 488.0 423.5 L 434.5 425.0 L 469.0 443.5 L 485.5 466.0 Z" fill="#f08704" fill-rule="evenodd"/>
  <path d="M 347.5 464.0 L 367.0 440.5 L 397.5 425.0 L 345.0 423.5 L 347.5 464.0 Z" fill="#f08704" fill-rule="evenodd"/>
  <path d="M 301.5 463.0 L 297.5 429.0 L 274.0 433.5 L 301.5 463.0 Z" fill="#f08704" fill-rule="evenodd"/>
  <path d="M 525.5 462.0 L 534.5 448.0 L 551.0 433.5 L 527.5 429.0 L 525.5 462.0 Z" fill="#f08704" fill-rule="evenodd"/>
  <path d="M 243.5 479.0 L 256.0 439.5 L 234.5 446.0 L 243.5 479.0 Z" fill="#f08704" fill-rule="evenodd"/>
  <path d="M 583.5 476.0 L 591.5 447.0 L 569.0 438.5 L 583.5 476.0 Z" fill="#f08704" fill-rule="evenodd"/>
  <path d="M 431.0 181.5 L 427.5 181.0 L 429.0 176.5 L 404.0 176.5 L 403.0 181.5 L 400.5 175.0 L 410.0 174.5 L 416.0 168.5 L 422.0 174.5 L 431.0 174.5 L 431.0 181.5 Z" fill="#f08704" fill-rule="evenodd"/>
  <path d="M 418.0 665.5 L 416.0 662.5 L 408.0 664.5 L 403.5 658.0 L 422.0 657.5 L 418.0 665.5 Z" fill="#f08704" fill-rule="evenodd"/>
  <path d="M 388.0 664.5 L 377.0 664.5 L 372.5 658.0 L 391.0 657.5 L 388.0 664.5 Z" fill="#f08704" fill-rule="evenodd"/>
  <path d="M 449.0 664.5 L 438.0 663.5 L 433.5 658.0 L 452.0 657.5 L 449.0 664.5 Z" fill="#f08704" fill-rule="evenodd"/>
  <path d="M 416.5 174.0 L 416.0 171.5 L 416.5 174.0 Z" fill="#f08704" fill-rule="evenodd"/>
  <path d="M 487.5 493.0 L 487.0 490.5 L 487.5 493.0 Z" fill="#f08704" fill-rule="evenodd"/>
  <path d="M 365.0 577.5 L 362.5 537.0 L 380.0 536.5 L 380.0 523.5 L 382.0 526.5 L 449.0 525.5 L 450.0 536.5 L 467.5 537.0 L 465.5 568.0 L 460.0 572.5 L 452.0 569.5 L 450.0 572.5 L 448.0 569.5 L 446.0 572.5 L 434.0 569.5 L 432.0 572.5 L 430.0 569.5 L 428.0 572.5 L 421.0 569.5 L 419.0 572.5 L 400.0 572.5 L 398.0 569.5 L 396.0 572.5 L 389.0 569.5 L 387.0 572.5 L 384.0 569.5 L 373.0 572.5 L 370.0 569.5 L 365.0 577.5 Z" fill="#fdf7d1" fill-rule="evenodd"/>
  <path d="M 553.0 587.5 L 552.0 579.5 L 515.0 577.5 L 512.5 581.0 L 517.5 541.0 L 525.0 540.5 L 528.0 532.5 L 539.0 536.5 L 556.5 535.0 L 554.5 546.0 L 561.5 551.0 L 553.0 587.5 Z" fill="#fdf7d1" fill-rule="evenodd"/>
  <path d="M 271.0 581.5 L 263.5 550.0 L 271.5 546.0 L 268.5 535.0 L 298.0 533.5 L 301.0 540.5 L 307.0 539.5 L 312.5 580.0 L 299.0 577.5 L 271.0 581.5 Z" fill="#fdf7d1" fill-rule="evenodd"/>
  <path d="M 406.0 730.5 L 384.0 729.5 L 382.5 725.0 L 407.0 723.5 L 406.0 730.5 Z" fill="#fdf7d1" fill-rule="evenodd"/>
  <path d="M 384.0 260.5 L 384.0 254.5 L 407.5 255.0 L 407.0 259.5 L 384.0 260.5 Z" fill="#fdf7d1" fill-rule="evenodd"/>
  <path d="M 480.0 259.5 L 457.0 259.5 L 455.5 256.0 L 481.0 254.5 L 480.0 259.5 Z" fill="#fdf7d1" fill-rule="evenodd"/>
  <path d="M 480.0 729.5 L 457.0 728.5 L 455.5 725.0 L 481.0 723.5 L 480.0 729.5 Z" fill="#fdf7d1" fill-rule="evenodd"/>
  <path d="M 443.0 260.5 L 420.0 258.5 L 419.5 255.0 L 443.0 254.5 L 443.0 260.5 Z" fill="#fdf7d1" fill-rule="evenodd"/>
  <path d="M 370.0 259.5 L 347.0 259.5 L 346.5 255.0 L 370.0 254.5 L 370.0 259.5 Z" fill="#fdf7d1" fill-rule="evenodd"/>
  <path d="M 443.0 728.5 L 421.0 728.5 L 419.5 724.0 L 444.0 723.5 L 443.0 728.5 Z" fill="#fdf7d1" fill-rule="evenodd"/>
  <path d="M 556.0 733.5 L 547.5 722.0 L 555.0 716.5 L 558.5 724.0 L 556.0 733.5 Z" fill="#fdf7d1" fill-rule="evenodd"/>
  <path d="M 370.0 728.5 L 347.0 728.5 L 346.5 724.0 L 370.0 723.5 L 370.0 728.5 Z" fill="#fdf7d1" fill-rule="evenodd"/>
  <path d="M 470.0 364.5 L 463.5 358.0 L 475.0 349.5 L 474.5 362.0 L 470.0 364.5 Z" fill="#fdf7d1" fill-rule="evenodd"/>
  <path d="M 434.0 364.5 L 436.0 350.5 L 444.5 359.0 L 434.0 364.5 Z" fill="#fdf7d1" fill-rule="evenodd"/>
  <path d="M 438.5 361.0 L 439.0 355.5 L 438.5 361.0 Z" fill="#fdf7d1" fill-rule="evenodd"/>
  <path d="M 470.5 361.0 L 470.0 355.5 L 467.5 359.0 L 470.5 361.0 Z" fill="#fdf7d1" fill-rule="evenodd"/>
  <path d="M 450.0 527.5 L 380.0 527.5 L 360.5 507.0 L 356.5 485.0 L 471.0 486.5 L 472.5 496.0 L 468.5 507.0 L 450.0 527.5 Z" fill="#fcf188" fill-rule="evenodd"/>
  <path d="M 269.0 538.5 L 256.5 519.0 L 252.5 500.0 L 301.0 496.5 L 302.5 514.0 L 298.5 533.0 L 294.0 536.5 L 269.0 538.5 Z" fill="#fcf188" fill-rule="evenodd"/>
  <path d="M 552.0 537.5 L 526.5 534.0 L 522.5 513.0 L 524.0 496.5 L 573.5 498.0 L 566.5 524.0 L 552.0 537.5 Z" fill="#fcf188" fill-rule="evenodd"/>
  <path d="M 476.0 264.5 L 461.0 264.5 L 457.5 260.0 L 479.0 258.5 L 476.0 264.5 Z" fill="#fcf188" fill-rule="evenodd"/>
  <path d="M 351.0 264.5 L 349.0 258.5 L 369.5 260.0 L 367.0 263.5 L 351.0 264.5 Z" fill="#fcf188" fill-rule="evenodd"/>
  <path d="M 389.0 264.5 L 385.0 258.5 L 406.5 260.0 L 404.0 263.5 L 389.0 264.5 Z" fill="#fcf188" fill-rule="evenodd"/>
  <path d="M 421.0 123.5 L 408.0 123.5 L 402.5 119.0 L 425.0 118.5 L 421.0 123.5 Z" fill="#fcf188" fill-rule="evenodd"/>
  <path d="M 525.0 732.5 L 519.5 727.0 L 521.0 716.5 L 525.0 716.5 L 528.5 723.0 L 525.0 732.5 Z" fill="#fcf188" fill-rule="evenodd"/>
  <path d="M 388.0 733.5 L 385.0 728.5 L 406.5 729.0 L 404.0 732.5 L 388.0 733.5 Z" fill="#fcf188" fill-rule="evenodd"/>
  <path d="M 476.0 733.5 L 461.0 733.5 L 457.5 729.0 L 479.0 728.5 L 476.0 733.5 Z" fill="#fcf188" fill-rule="evenodd"/>
  <path d="M 423.0 263.5 L 421.0 258.5 L 442.5 260.0 L 423.0 263.5 Z" fill="#fcf188" fill-rule="evenodd"/>
  <path d="M 511.0 733.5 L 504.5 726.0 L 512.0 718.5 L 514.5 730.0 L 511.0 733.5 Z" fill="#fcf188" fill-rule="evenodd"/>
  <path d="M 365.0 488.5 L 359.5 487.0 L 357.5 481.0 L 366.5 465.0 L 387.0 448.5 L 414.0 435.5 L 456.0 458.5 L 466.5 470.0 L 472.5 484.0 L 472.0 487.5 L 365.0 488.5 Z" fill="#fced3b" fill-rule="evenodd"/>
  <path d="M 253.0 501.5 L 252.5 477.0 L 267.0 447.5 L 293.5 471.0 L 301.5 496.0 L 257.0 498.5 L 253.0 501.5 Z" fill="#fced3b" fill-rule="evenodd"/>
  <path d="M 572.0 500.5 L 523.5 496.0 L 532.5 470.0 L 558.0 447.5 L 572.5 476.0 L 572.0 500.5 Z" fill="#fced3b" fill-rule="evenodd"/>
  <path d="M 416.0 385.5 L 406.0 377.5 L 395.0 377.5 L 394.5 373.0 L 402.0 375.5 L 402.0 370.5 L 408.0 375.5 L 423.0 375.5 L 431.0 370.5 L 427.5 374.0 L 433.0 375.5 L 435.5 371.0 L 436.0 377.5 L 425.0 377.5 L 416.0 385.5 Z" fill="#fced3b" fill-rule="evenodd"/>
  <path d="M 338.0 385.5 L 328.0 377.5 L 317.0 377.5 L 316.5 371.0 L 320.0 375.5 L 324.5 374.0 L 323.0 370.5 L 330.0 375.5 L 345.0 375.5 L 351.0 370.5 L 350.5 374.0 L 355.0 375.5 L 358.5 371.0 L 358.0 377.5 L 347.0 377.5 L 338.0 385.5 Z" fill="#fced3b" fill-rule="evenodd"/>
  <path d="M 494.0 385.5 L 483.0 377.5 L 473.0 377.5 L 472.5 371.0 L 476.0 375.5 L 480.5 374.0 L 478.0 370.5 L 485.0 375.5 L 501.0 375.5 L 505.0 371.5 L 510.0 375.5 L 513.5 371.0 L 514.0 377.5 L 503.0 377.5 L 494.0 385.5 Z" fill="#fced3b" fill-rule="evenodd"/>
  <path d="M 595.0 395.5 L 586.5 386.0 L 588.0 379.5 L 594.0 387.5 L 605.5 391.0 L 600.0 390.5 L 595.0 395.5 Z" fill="#fced3b" fill-rule="evenodd"/>
  <path d="M 494.5 381.0 L 495.0 377.5 L 489.5 379.0 L 494.5 381.0 Z" fill="#fced3b" fill-rule="evenodd"/>
  <path d="M 338.5 381.0 L 339.0 377.5 L 334.5 379.0 L 338.5 381.0 Z" fill="#fced3b" fill-rule="evenodd"/>
  <path d="M 416.5 381.0 L 417.0 377.5 L 412.5 379.0 L 416.5 381.0 Z" fill="#fced3b" fill-rule="evenodd"/>
  <path d="M 349.0 604.5 L 336.5 496.0 L 336.5 490.0 L 342.0 488.5 L 344.0 491.5 L 355.5 490.0 L 361.5 510.0 L 377.5 524.0 L 379.5 532.0 L 379.0 535.5 L 360.5 537.0 L 365.5 590.0 L 359.0 598.5 L 351.0 595.5 L 349.0 604.5 Z" fill="#e25e08" fill-rule="evenodd"/>
  <path d="M 467.0 598.5 L 463.5 590.0 L 468.5 537.0 L 450.0 535.5 L 449.5 532.0 L 451.5 524.0 L 468.5 509.0 L 474.0 484.5 L 476.0 492.5 L 482.0 488.5 L 484.0 491.5 L 492.0 489.5 L 492.5 493.0 L 480.5 593.0 L 479.0 596.5 L 467.0 598.5 Z" fill="#e25e08" fill-rule="evenodd"/>
  <path d="M 556.0 614.5 L 549.0 612.5 L 548.5 609.0 L 562.5 549.0 L 554.5 546.0 L 573.0 507.5 L 575.0 511.5 L 581.0 509.5 L 581.5 513.0 L 578.5 514.0 L 580.5 518.0 L 556.0 614.5 Z" fill="#e25e08" fill-rule="evenodd"/>
  <path d="M 270.0 615.5 L 243.5 513.0 L 251.0 507.5 L 270.5 546.0 L 262.5 549.0 L 276.5 608.0 L 270.0 615.5 Z" fill="#e25e08" fill-rule="evenodd"/>
  <path d="M 509.0 599.5 L 504.5 599.0 L 504.5 589.0 L 517.0 484.5 L 519.0 494.5 L 523.5 489.0 L 521.5 509.0 L 526.5 531.0 L 525.0 539.5 L 516.5 540.0 L 509.0 599.5 Z" fill="#e25e08" fill-rule="evenodd"/>
  <path d="M 321.0 605.5 L 320.5 600.0 L 315.5 599.0 L 308.5 540.0 L 299.5 539.0 L 298.5 528.0 L 306.0 492.5 L 310.5 501.0 L 321.0 605.5 Z" fill="#e25e08" fill-rule="evenodd"/>
  <path d="M 489.0 302.5 L 469.5 302.0 L 478.0 293.5 L 484.0 293.5 L 489.0 302.5 Z" fill="#e25e08" fill-rule="evenodd"/>
  <path d="M 358.0 301.5 L 340.5 300.0 L 346.0 293.5 L 352.0 293.5 L 358.0 301.5 Z" fill="#e25e08" fill-rule="evenodd"/>
  <path d="M 401.0 300.5 L 382.5 300.0 L 389.0 293.5 L 396.0 293.5 L 401.0 300.5 Z" fill="#e25e08" fill-rule="evenodd"/>
  <path d="M 445.0 300.5 L 427.5 299.0 L 433.0 293.5 L 441.0 294.5 L 445.0 300.5 Z" fill="#e25e08" fill-rule="evenodd"/>
  <path d="M 405.0 131.5 L 391.5 130.0 L 396.0 122.5 L 401.0 123.5 L 405.0 131.5 Z" fill="#e25e08" fill-rule="evenodd"/>
  <path d="M 348.0 464.5 L 344.0 424.5 L 396.5 425.0 L 360.0 445.5 L 348.0 464.5 Z" fill="#15773a" fill-rule="evenodd"/>
  <path d="M 485.0 464.5 L 466.0 440.5 L 435.5 425.0 L 488.0 424.5 L 485.0 464.5 Z" fill="#15773a" fill-rule="evenodd"/>
  <path d="M 481.0 805.5 L 460.5 800.0 L 459.5 794.0 L 451.5 788.0 L 457.5 783.0 L 457.0 775.5 L 466.0 775.5 L 473.0 770.5 L 480.0 775.5 L 489.0 775.5 L 500.5 789.0 L 495.5 793.0 L 496.0 800.5 L 487.0 800.5 L 481.0 805.5 Z" fill="#15773a" fill-rule="evenodd"/>
  <path d="M 347.0 805.5 L 340.0 800.5 L 330.0 800.5 L 330.5 793.0 L 325.5 788.0 L 333.5 783.0 L 336.0 775.5 L 346.0 775.5 L 353.0 770.5 L 359.0 775.5 L 368.0 775.5 L 368.5 783.0 L 374.5 788.0 L 366.5 794.0 L 365.0 800.5 L 355.0 800.5 L 347.0 805.5 Z" fill="#15773a" fill-rule="evenodd"/>
  <path d="M 414.0 805.5 L 406.0 800.5 L 396.0 800.5 L 395.5 794.0 L 389.5 789.0 L 396.5 782.0 L 397.0 775.5 L 407.0 775.5 L 413.0 770.5 L 420.0 775.5 L 429.0 775.5 L 430.5 783.0 L 437.5 788.0 L 431.5 793.0 L 431.0 800.5 L 421.0 800.5 L 414.0 805.5 Z" fill="#15773a" fill-rule="evenodd"/>
  <path d="M 243.0 481.5 L 234.5 446.0 L 257.0 439.5 L 245.5 462.0 L 243.0 481.5 Z" fill="#15773a" fill-rule="evenodd"/>
  <path d="M 301.0 464.5 L 291.5 448.0 L 274.0 434.5 L 296.5 429.0 L 301.0 464.5 Z" fill="#15773a" fill-rule="evenodd"/>
  <path d="M 524.0 464.5 L 528.5 429.0 L 551.0 434.5 L 531.5 451.0 L 524.0 464.5 Z" fill="#15773a" fill-rule="evenodd"/>
  <path d="M 582.0 480.5 L 579.5 461.0 L 569.0 439.5 L 590.5 446.0 L 582.0 480.5 Z" fill="#15773a" fill-rule="evenodd"/>
  <path d="M 231.0 793.5 L 226.5 789.0 L 232.5 777.0 L 253.0 761.5 L 256.5 767.0 L 251.5 779.0 L 240.0 790.5 L 231.0 793.5 Z" fill="#15773a" fill-rule="evenodd"/>
  <path d="M 595.0 793.5 L 585.0 790.5 L 573.5 778.0 L 569.5 768.0 L 572.0 761.5 L 592.5 776.0 L 598.5 788.0 L 595.0 793.5 Z" fill="#15773a" fill-rule="evenodd"/>
  <path d="M 256.0 797.5 L 251.5 791.0 L 256.5 780.0 L 276.0 764.5 L 279.5 771.0 L 275.5 782.0 L 256.0 797.5 Z" fill="#15773a" fill-rule="evenodd"/>
  <path d="M 569.0 797.5 L 550.5 783.0 L 546.5 772.0 L 549.0 764.5 L 558.0 768.5 L 569.5 781.0 L 573.5 792.0 L 569.0 797.5 Z" fill="#15773a" fill-rule="evenodd"/>
  <path d="M 281.0 800.5 L 276.5 796.0 L 280.5 783.0 L 298.0 767.5 L 302.5 773.0 L 298.5 787.0 L 290.0 797.5 L 281.0 800.5 Z" fill="#15773a" fill-rule="evenodd"/>
  <path d="M 544.0 800.5 L 536.0 797.5 L 526.5 786.0 L 523.5 773.0 L 527.0 767.5 L 545.5 783.0 L 548.5 796.0 L 544.0 800.5 Z" fill="#15773a" fill-rule="evenodd"/>
  <path d="M 355.5 798.0 L 364.5 792.0 L 365.5 787.0 L 358.0 777.5 L 347.0 777.5 L 335.5 785.0 L 334.5 793.0 L 341.0 798.5 L 355.5 798.0 Z" fill="#15773a" fill-rule="evenodd"/>
  <path d="M 485.5 798.0 L 491.5 793.0 L 490.5 786.0 L 480.0 777.5 L 468.0 777.5 L 460.5 784.0 L 461.5 792.0 L 469.0 797.5 L 485.5 798.0 Z" fill="#15773a" fill-rule="evenodd"/>
  <path d="M 420.5 798.0 L 428.5 791.0 L 427.5 784.0 L 419.0 777.5 L 408.0 777.5 L 398.5 784.0 L 398.5 793.0 L 406.0 798.5 L 420.5 798.0 Z" fill="#15773a" fill-rule="evenodd"/>
  <path d="M 237.5 788.0 L 248.5 778.0 L 249.0 767.5 L 234.5 779.0 L 232.5 787.0 L 237.5 788.0 Z" fill="#15773a" fill-rule="evenodd"/>
  <path d="M 591.5 788.0 L 588.5 776.0 L 576.0 767.5 L 574.5 774.0 L 579.5 781.0 L 591.5 788.0 Z" fill="#15773a" fill-rule="evenodd"/>
  <path d="M 262.5 791.0 L 273.5 779.0 L 274.5 773.0 L 271.0 770.5 L 257.5 784.0 L 257.5 790.0 L 262.5 791.0 Z" fill="#15773a" fill-rule="evenodd"/>
  <path d="M 567.5 791.0 L 562.5 776.0 L 553.0 771.5 L 551.5 778.0 L 555.5 785.0 L 567.5 791.0 Z" fill="#15773a" fill-rule="evenodd"/>
  <path d="M 286.5 795.0 L 297.5 781.0 L 294.0 773.5 L 282.5 786.0 L 281.5 793.0 L 286.5 795.0 Z" fill="#15773a" fill-rule="evenodd"/>
  <path d="M 540.5 795.0 L 543.5 788.0 L 531.0 773.5 L 528.5 782.0 L 540.5 795.0 Z" fill="#15773a" fill-rule="evenodd"/>
  <path d="M 384.0 223.5 L 366.0 223.5 L 365.5 209.0 L 384.0 223.5 Z" fill="#15773a" fill-rule="evenodd"/>
  <path d="M 461.0 223.5 L 442.5 223.0 L 462.0 209.5 L 461.0 223.5 Z" fill="#15773a" fill-rule="evenodd"/>
  <path d="M 406.0 671.5 L 387.5 671.0 L 398.0 657.5 L 406.0 671.5 Z" fill="#15773a" fill-rule="evenodd"/>
  <path d="M 436.0 671.5 L 418.5 670.0 L 428.0 657.5 L 436.0 671.5 Z" fill="#15773a" fill-rule="evenodd"/>
  <path d="M 480.5 803.0 L 476.5 802.0 L 480.5 803.0 Z" fill="#15773a" fill-rule="evenodd"/>
  <path d="M 347.5 803.0 L 344.5 802.0 L 347.5 803.0 Z" fill="#15773a" fill-rule="evenodd"/>
  <path d="M 414.5 803.0 L 411.5 802.0 L 414.5 803.0 Z" fill="#15773a" fill-rule="evenodd"/>
  <path d="M 339.5 780.0 L 339.0 777.5 L 339.5 780.0 Z" fill="#15773a" fill-rule="evenodd"/>
  <path d="M 365.5 780.0 L 365.0 777.5 L 365.5 780.0 Z" fill="#15773a" fill-rule="evenodd"/>
  <path d="M 400.5 780.0 L 400.0 777.5 L 400.5 780.0 Z" fill="#15773a" fill-rule="evenodd"/>
  <path d="M 426.5 780.0 L 426.0 777.5 L 426.5 780.0 Z" fill="#15773a" fill-rule="evenodd"/>
  <path d="M 461.5 780.0 L 461.0 777.5 L 461.5 780.0 Z" fill="#15773a" fill-rule="evenodd"/>
  <path d="M 487.5 780.0 L 487.0 777.5 L 487.5 780.0 Z" fill="#15773a" fill-rule="evenodd"/>
  <path d="M 432.5 789.0 L 432.0 786.5 L 432.5 789.0 Z" fill="#15773a" fill-rule="evenodd"/>
  <path d="M 457.5 789.0 L 457.0 786.5 L 457.5 789.0 Z" fill="#15773a" fill-rule="evenodd"/>
  <path d="M 547.0 839.5 L 277.5 839.0 L 547.0 839.5 Z" fill="#783f4e" fill-rule="evenodd"/>
  <path d="M 501.0 413.5 L 328.5 413.0 L 501.0 413.5 Z" fill="#783f4e" fill-rule="evenodd"/>
  <path d="M 469.0 687.5 L 356.5 687.0 L 469.0 687.5 Z" fill="#783f4e" fill-rule="evenodd"/>
  <path d="M 459.0 637.5 L 370.5 637.0 L 459.0 637.5 Z" fill="#c3acba" fill-rule="evenodd"/>
  <path d="M 216.0 380.5 L 218.5 362.0 L 225.0 354.5 L 235.0 357.5 L 237.5 367.0 L 224.0 360.5 L 216.0 380.5 Z" fill="#c3acba" fill-rule="evenodd"/>
  <path d="M 253.0 369.5 L 249.5 367.0 L 252.5 356.0 L 249.5 353.0 L 256.0 347.5 L 267.0 346.5 L 268.5 356.0 L 263.0 351.5 L 258.0 352.5 L 253.0 369.5 Z" fill="#c3acba" fill-rule="evenodd"/>
  <path d="M 348.0 344.5 L 326.5 344.0 L 334.5 340.0 L 338.0 330.5 L 340.5 340.0 L 348.0 344.5 Z" fill="#c3acba" fill-rule="evenodd"/>
  <path d="M 556.0 358.5 L 553.5 357.0 L 558.5 352.0 L 556.5 348.0 L 566.0 349.5 L 568.0 344.5 L 571.5 351.0 L 563.0 351.5 L 556.0 358.5 Z" fill="#c3acba" fill-rule="evenodd"/>
  <path d="M 187.0 379.5 L 184.5 373.0 L 193.0 363.5 L 197.0 368.5 L 202.5 368.0 L 200.0 375.5 L 195.0 371.5 L 187.0 379.5 Z" fill="#c3acba" fill-rule="evenodd"/>
  <path d="M 423.0 342.5 L 407.5 342.0 L 412.5 340.0 L 411.5 334.0 L 416.0 330.5 L 418.5 340.0 L 423.0 342.5 Z" fill="#c3acba" fill-rule="evenodd"/>
  <path d="M 590.0 367.5 L 589.5 358.0 L 600.0 354.5 L 603.5 362.0 L 596.0 361.5 L 590.0 367.5 Z" fill="#c3acba" fill-rule="evenodd"/>
</svg>
